<svg width="500" height="500" viewBox="0 0 500 500" fill="none" xmlns="http://www.w3.org/2000/svg">
<path fill-rule="evenodd" clip-rule="evenodd" d="M369.953 16.0664C371.162 15.3994 372.683 15.8387 373.35 17.0477C375.818 21.5218 378.369 26.0014 380.934 30.5068C392.056 50.039 403.452 70.0533 409.616 92.1883C418.416 123.79 416.498 158.156 406.664 190.051C413.389 195.223 419.452 200.945 424.787 207.235C432.252 216.037 438.26 225.915 442.666 236.899C458.965 264.45 466.724 294.927 455.185 325.27C452.701 331.802 448.884 337.301 444.139 341.924C437.974 370.091 428.214 397.99 413.752 422.407C391.109 460.638 361.57 480.875 329.652 483.858C311.224 485.581 292.213 481.53 273.518 472.11C249.934 475.784 224.105 471.261 199.633 462.283C163.485 449.022 129.691 425.834 109.287 403.729C85.1342 377.564 59.4572 324.34 47.0025 270.147C40.7658 243.011 37.8061 215.475 40.0699 190.818C42.3324 166.174 49.8363 144.187 64.7438 128.442C73.3723 119.329 84.813 113.678 96.7601 109.838C108.591 106.035 121.126 103.946 132.195 102.101L132.502 102.05C139.329 100.912 146.182 99.958 153.054 99.1962C162.566 92.0009 174.849 88.2185 188.951 88.1987C207.775 72.1926 231.293 62.6718 259.461 64.9914C306.273 68.8466 344.217 88.7121 369.604 129.283C377.831 142.43 383.312 157.101 386.453 172.373C391.571 176.834 396.698 181.531 401.731 186.437C401.953 186.592 402.174 186.747 402.395 186.903C411.525 156.316 413.162 123.562 404.799 93.5297C398.817 72.0493 387.805 52.6988 376.709 33.1999C374.114 28.6388 371.513 24.0695 368.972 19.463C368.305 18.2541 368.744 16.7334 369.953 16.0664ZM381.313 174.537C370.143 164.923 359.046 156.448 349.095 149.419C329.649 135.684 309.687 125.263 288.843 117.737C294.466 123.118 299.792 128.904 304.735 135.014C314.297 137.694 323.628 140.936 332.608 144.813C348.813 151.808 365.641 161.084 379.18 173.52C379.896 173.855 380.607 174.194 381.313 174.537ZM362.579 166.718C352.598 159.826 341.586 154.135 330.626 149.403C324.839 146.905 318.895 144.674 312.831 142.691C317.35 146.708 321.726 150.861 325.95 155.122C326.687 155.865 327.418 156.613 328.144 157.367C329.735 157.697 331.337 158.036 332.951 158.383C343.365 160.627 353.265 163.397 362.579 166.718ZM319.355 155.616C319.207 155.472 319.06 155.328 318.912 155.184C318.991 155.315 319.07 155.446 319.149 155.577C319.217 155.59 319.286 155.603 319.355 155.616ZM322.447 161.313C323.495 161.521 324.548 161.733 325.607 161.95C348 185.571 364.631 214.333 374.011 244.972C372.56 246.993 371.073 248.979 369.55 250.928C369.163 251.424 368.773 251.916 368.381 252.406C365.146 230.772 355.062 209.853 339.801 191.85C337.505 189.141 335.15 186.534 332.74 184.029C332.029 182.049 331.274 180.079 330.477 178.122C328.148 172.408 325.457 166.791 322.447 161.313ZM312.514 154.356C309.534 149.678 306.318 145.129 302.899 140.741C302.266 140.215 301.631 139.691 300.994 139.171C271.973 131.355 240.77 128.689 210.834 129.16C213.308 130.506 215.747 131.894 218.15 133.326C228.217 134.054 238.057 135.427 247.616 137.493C264.51 135.306 281.591 139.012 297.948 149.962C299.192 150.795 300.428 151.662 301.654 152.56C305.21 153.104 308.829 153.703 312.514 154.356ZM309.551 158.914C311.677 159.281 313.826 159.667 315.999 160.072C318.262 163.954 320.36 167.913 322.277 171.934C318.321 167.232 314.041 162.863 309.551 158.914ZM290.044 150.952C282.33 146.574 274.472 143.849 266.56 142.635C273.295 144.858 279.856 147.474 286.222 150.501C287.487 150.643 288.761 150.794 290.044 150.952ZM298.83 157.192C299.112 157.233 299.394 157.275 299.677 157.318C300.451 157.899 301.222 158.494 301.987 159.102C300.941 158.452 299.888 157.815 298.83 157.192ZM269.869 149.074C262.599 146.426 255.102 144.264 247.407 142.564C243.556 143.11 239.709 143.984 235.877 145.171C237.595 146.455 239.288 147.766 240.958 149.103C249.921 148.457 259.554 148.457 269.869 149.074ZM246.588 153.789C258.174 153.299 270.907 153.843 284.826 155.376C299.091 162.252 312.309 171.258 324.229 182.611C326.306 185.533 328.243 188.551 330.016 191.645C340.018 223.974 337.395 258.196 314.421 286.954C313.637 287.934 312.84 288.919 312.028 289.907C311.355 283.255 310.437 276.71 309.326 270.368C314.36 254.744 317.539 237.472 316.727 221.496C316.071 208.561 312.788 196.298 305.572 186.469C298.318 176.588 287.25 169.386 271.474 166.353C266.964 165.485 262.686 165.114 258.628 165.184C254.791 161.211 250.774 157.413 246.588 153.789ZM233.695 149.785C232.528 148.903 231.35 148.033 230.161 147.175C226.57 148.582 222.996 150.257 219.449 152.189C223.982 151.164 228.73 150.365 233.695 149.785ZM203.077 162.679C213.415 158.2 225.472 155.407 239.362 154.242C243.796 157.869 248.046 161.686 252.102 165.694C238.076 167.676 226.917 175.186 217.99 185.463C205.413 199.94 197.182 219.97 191.159 237.861C190.666 239.327 190.162 240.815 189.651 242.323C189.65 242.324 189.65 242.326 189.649 242.327C189.64 242.352 189.632 242.378 189.624 242.403C184.336 258.007 178.34 275.717 176.195 292.924C175.68 291.108 175.251 289.301 174.913 287.512C170.401 263.629 171.706 234.121 174.67 209.729C176.31 196.23 180.753 185.947 187.565 177.323C191.801 171.96 196.988 167.193 203.077 162.679ZM200.562 158.322C204.353 155.538 208.433 152.875 212.771 150.258C216.897 147.769 221.076 145.602 225.293 143.778C222.457 141.862 219.562 140.013 216.609 138.231C215.539 138.159 214.467 138.094 213.392 138.037C190.825 136.84 171.283 139.074 154.669 143.943C150.222 153.684 146.581 163.793 143.749 173.877C142.681 177.682 141.682 181.48 140.75 185.272C143.212 200.446 146.762 215.609 150.511 230.344C155.065 204.058 164.862 184.376 180.491 170.884C186.39 165.792 193.079 161.62 200.562 158.322ZM153.797 243.031C157.064 212.354 166.493 190.377 182.338 175.929C175.662 184.963 171.345 195.635 169.706 209.126C166.72 233.702 165.346 263.808 170 288.44C171.043 293.957 172.877 299.609 175.38 305.142C175.373 307.458 175.459 309.76 175.651 312.04C174.866 311.539 174.083 311.033 173.302 310.521C165.855 286.556 158.8 262.07 154.789 246.811C154.459 245.555 154.128 244.295 153.797 243.031ZM148.73 243.42C144.887 228.753 140.959 213.376 137.915 197.786C137.627 199.175 137.347 200.563 137.076 201.952C137.212 206.196 137.47 210.476 137.839 214.774C139.391 232.859 142.898 251.119 147.495 268.184C147.531 259.427 147.938 251.175 148.73 243.42ZM152.919 286.317C152.434 276.351 152.362 267.011 152.706 258.277C156.39 271.627 161.376 288.751 166.684 306.037C163.605 303.881 160.549 301.642 157.509 299.321C155.931 295.139 154.395 290.794 152.919 286.317ZM147.958 287.236C141.48 267.447 136.184 245.169 133.625 222.849C131.271 240.192 130.135 257.688 129.966 275.673C133.947 279.538 138.1 283.313 142.348 286.981C144.304 288.669 146.262 290.323 148.223 291.942C148.125 290.359 148.037 288.791 147.958 287.236ZM148.699 298.775C145.481 296.195 142.278 293.525 139.081 290.765C135.989 288.096 132.931 285.357 129.94 282.556C129.93 285.304 129.902 288.103 129.875 290.938C129.721 306.73 129.556 323.668 132.301 339.435C132.477 340.445 132.664 341.45 132.865 342.447C135.412 344.596 138.052 346.689 140.784 348.722C145.257 348.495 149.755 348.089 154.239 347.55C153.105 340.619 152.328 333.645 151.582 326.936C151.317 324.56 151.057 322.218 150.785 319.923C149.922 312.627 149.225 305.579 148.699 298.775ZM155.113 352.482C152.495 352.799 149.867 353.073 147.235 353.294C150.241 355.322 153.347 357.279 156.554 359.16C156.02 356.954 155.544 354.724 155.113 352.482ZM162.623 362.563C161.614 359.057 160.783 355.467 160.077 351.83C166.986 350.853 173.784 349.612 180.324 348.285C183.107 356.373 185.741 363.61 188.07 369.427C188.714 371.036 189.358 372.629 190.006 374.209C183.641 372.217 177.405 369.786 171.367 366.952C168.38 365.55 165.465 364.086 162.623 362.563ZM158.424 365.972C151.621 362.228 145.226 358.152 139.245 353.795C138.115 353.84 136.987 353.874 135.86 353.895C140.229 367.069 147.649 378.425 160.158 386.288C164.367 388.934 168.778 391.152 173.34 392.984C166.085 385.227 161.499 375.888 158.424 365.972ZM185.601 396.924C175.302 389.925 168.976 380.312 164.86 369.353C166.304 370.076 167.765 370.785 169.243 371.478C176.722 374.989 184.514 377.907 192.492 380.163C195.361 386.895 198.327 393.363 201.551 399.602C196.15 399.091 190.812 398.216 185.601 396.924ZM183.546 401.563C174.418 399.219 165.626 395.631 157.497 390.521C143.241 381.56 135.167 368.519 130.613 353.905C121.567 353.758 112.682 352.742 104.283 350.467C76.8527 343.035 64.8305 317.595 59.5554 289.873C55.0751 266.327 55.3047 240.336 55.4795 220.551C55.511 216.983 55.5407 213.617 55.5407 210.503C55.5407 177.558 64.0766 139.244 102.436 124.773C115.433 119.87 127.896 115.833 140.224 113.802C142.068 110.595 144.22 107.656 146.661 105.002C142.206 105.582 137.76 106.243 133.324 106.982L133.171 107.007C122.005 108.868 109.772 110.907 98.2903 114.598C86.7619 118.304 76.2012 123.613 68.3745 131.88C54.5052 146.528 47.2513 167.287 45.049 191.275C42.848 215.248 45.7166 242.229 51.8754 269.027C64.2115 322.704 89.5938 375.024 112.961 400.338C132.799 421.829 165.912 444.586 201.355 457.589C223.029 465.54 245.348 469.767 265.94 467.987C254.908 461.538 244.031 453.219 233.494 443.112C223.841 433.853 216.191 424.18 209.702 413.901C200.049 410.67 191.162 406.429 184.204 401.989C183.983 401.848 183.764 401.706 183.546 401.563ZM205.626 407.111C203.408 406.248 201.252 405.335 199.174 404.385C200.896 404.575 202.623 404.728 204.354 404.847C204.773 405.605 205.197 406.36 205.626 407.111ZM217.159 416.148C222.742 424.309 229.181 432.047 236.955 439.504C249.146 451.197 261.702 460.349 274.323 466.907C284.373 465.167 293.908 461.842 302.63 456.646C328.265 441.374 346.137 413.01 360.826 387.082C364.832 380.011 368.262 372.751 371.137 365.352C365.948 365.55 361.032 365.555 356.569 365.438C347.713 365.204 338.845 364.539 329.988 363.538C320.085 370.81 309.63 377.339 298.759 382.954C292.158 395.258 282.98 405.723 270.582 413.146C258.134 420.598 241.723 421.075 226.078 418.173C223.084 417.618 220.101 416.936 217.159 416.148ZM290.548 386.983C284.745 395.809 277.325 403.281 268.014 408.856C257.085 415.399 242.124 416.064 226.99 413.257C222.248 412.378 217.534 411.165 212.982 409.713C212.047 408.197 211.137 406.666 210.247 405.119C223.1 405.43 235.998 403.938 248.122 401.34C262.677 398.221 276.904 393.328 290.548 386.983ZM302.439 375.308C309.381 371.449 316.136 367.209 322.667 362.636C318.119 362.03 313.576 361.343 309.042 360.588C308.49 360.839 307.937 361.084 307.382 361.325C306.008 366.143 304.369 370.821 302.439 375.308ZM301.45 363.677C299.702 369.127 297.587 374.335 295.068 379.226C279.746 387.001 263.614 392.907 247.075 396.451C234.257 399.198 220.721 400.641 207.417 400.016C204.29 394.173 201.408 388.101 198.628 381.758C230.497 389.317 264.751 386.246 293.493 368.194C295.421 366.984 297.341 365.733 299.253 364.444C299.988 364.196 300.721 363.94 301.45 363.677ZM316.642 356.732C320.626 357.331 324.612 357.872 328.599 358.345C346.648 344.864 362.801 328.847 376.17 311.384C378.477 308.37 380.675 305.191 382.744 301.875C382.718 290.052 381.56 278.216 379.346 266.536C375.686 276.429 370.971 286.073 365.418 295.335C362.576 304.817 358.205 314.158 352.166 323.173C342.054 338.266 330.041 349.188 316.642 356.732ZM368.891 278.37C372.242 271.388 375.073 264.245 377.296 257C376.816 255.005 376.306 253.016 375.765 251.033C375.016 252.034 374.257 253.025 373.489 254.007C372.083 255.807 370.645 257.571 369.176 259.301C369.69 265.635 369.609 272.009 368.891 278.37ZM364.46 264.626C364.738 274.216 363.561 283.851 360.787 293.332C347.646 315.079 329.728 334.725 310.017 350.363C311.544 342.677 312.492 334.746 312.957 326.749C313.205 322.483 313.316 318.188 313.304 313.89C317.273 308.544 321.15 302.979 324.776 297.239C339.313 288.059 352.743 277.318 364.46 264.626ZM364.003 257.649C361.91 237.154 353.29 217.099 339.557 199.474C343.777 209.145 346.409 219.336 346.848 229.585C347.703 249.547 340.717 269.233 330.666 287.327C342.895 278.774 354.142 268.969 364.003 257.649ZM321.146 293.617C322.792 290.982 324.38 288.313 325.895 285.614C335.936 267.729 342.664 248.731 341.852 229.799C341.67 225.549 341.081 221.295 340.133 217.078C342.289 242.317 336.178 267.731 318.327 290.075C316.511 292.348 314.615 294.65 312.645 296.964C312.686 297.514 312.725 298.064 312.762 298.615C315.595 297.003 318.392 295.338 321.146 293.617ZM299.7 311.126C302.551 309.74 305.377 308.309 308.173 306.831C308.234 308.634 308.275 310.439 308.293 312.244C302.464 320.011 296.436 327.328 290.708 334.059C285.905 339.704 280.725 344.634 275.253 348.718C269.488 347.4 263.743 346.023 258.023 344.614C262.665 342.285 266.962 339.16 270.929 335.535C281.19 328.57 290.909 320.058 299.7 311.126ZM307.5 295.283C304.1 299.216 300.501 303.155 296.736 307.007C294.901 307.892 293.054 308.759 291.197 309.607C293.866 305.175 296.269 300.777 298.415 296.665C301.016 291.679 303.531 286.141 305.823 280.238C306.517 285.176 307.084 290.206 307.5 295.283ZM307.235 259.688C310.508 247.147 312.356 233.999 311.734 221.749C311.109 209.449 308.005 198.233 301.541 189.428C295.115 180.674 285.21 174.086 270.53 171.263C268.075 170.791 265.698 170.478 263.396 170.314C278.362 187.053 290.304 206.68 298.546 229.191C301.788 238.047 304.794 248.42 307.235 259.688ZM256.568 170.269C272.596 187.286 285.281 207.503 293.851 230.91C297.888 241.936 301.554 255.397 304.184 270.01C301.257 278.876 297.719 287.189 293.982 294.352C290.844 300.366 287.196 306.903 283.012 313.207C277.938 315.355 272.798 317.38 267.613 319.296C267.622 319.277 267.631 319.258 267.64 319.239C270.523 316.81 273.324 314.089 276.009 311.068C282.616 303.634 289.408 294.472 294.044 284.467C298.678 274.466 301.233 263.456 299.101 252.441C297.602 244.695 291.626 238.325 285.24 233.154C284.731 232.742 284.215 232.334 283.696 231.932C283.696 231.9 283.696 231.868 283.696 231.836C283.671 226.938 283.177 221.766 281.06 217.319C276.693 208.147 266.976 205.386 257.654 205.529C251.235 205.628 244.574 207.086 239.006 209.132C234.222 209.202 229.813 210.495 225.624 212.733C220.058 215.707 214.911 220.333 209.75 225.856C205.707 230.18 201.552 235.171 197.129 240.483C196.264 241.523 195.388 242.574 194.501 243.635C194.502 243.62 194.502 243.604 194.502 243.588C194.973 242.199 195.439 240.821 195.898 239.457C201.889 221.661 209.87 202.434 221.764 188.742C230.816 178.322 242.079 171.149 256.568 170.269ZM181.058 294.345C180.787 296.666 180.59 298.973 180.48 301.261C180.435 302.202 180.405 303.137 180.39 304.068C181.712 306.89 183.22 309.678 184.894 312.393C184.867 311.436 184.858 310.474 184.863 309.509C183.107 304.625 181.82 299.523 181.058 294.345ZM186.318 324.188C185.003 323.465 183.695 322.729 182.393 321.98C183.103 324.651 184.015 327.25 185.153 329.764C186.879 333.579 189.137 337.229 192.029 340.665C192.138 340.641 192.248 340.617 192.357 340.592C193.596 340.316 194.837 340.037 196.08 339.755C194.225 338.508 192.631 336.982 191.28 335.221C188.863 332.071 187.297 328.27 186.318 324.188ZM201.613 343.617C199.746 344.05 197.885 344.475 196.031 344.893C198.926 347.621 202.299 350.183 206.211 352.55C221.946 362.07 237.419 363.962 251.706 360.309C257.893 358.728 263.897 356.096 269.63 352.55C263.123 351.027 256.655 349.44 250.237 347.83C246.467 349.078 242.773 349.853 239.174 350.199C231.248 353.412 222.227 353.761 212.417 349.837C208.321 348.199 204.728 346.109 201.613 343.617ZM277.546 320.85C274.513 324.766 271.271 328.415 267.816 331.606C263.383 334.598 258.859 337.28 254.281 339.557C258.124 335.523 261.461 330.821 264.261 325.829C268.718 324.25 273.15 322.593 277.546 320.85ZM272.543 307.44C278.866 300.285 285.207 291.646 289.507 282.365C293.871 272.948 296.059 263.036 294.192 253.391C293.139 247.95 289.038 242.932 283.533 238.235C283.519 238.533 283.506 238.828 283.492 239.122L283.475 239.503C283.372 241.725 283.276 243.807 283.276 245.743C283.276 265.388 279.677 287.835 272.543 307.44ZM278.562 228.177C278.325 224.934 277.74 221.977 276.546 219.469C273.443 212.953 266.324 210.396 257.731 210.529C255.372 210.565 252.97 210.807 250.613 211.205C252.084 211.73 253.586 212.357 255.122 213.09C256.523 213.585 257.874 214.206 259.168 214.94C260.522 215.708 261.807 216.595 263.018 217.585C264.146 218.323 265.291 219.113 266.457 219.953C268.252 221.248 270.302 222.613 272.527 224.094C273.418 224.688 274.338 225.3 275.281 225.934C276.357 226.658 277.456 227.406 278.562 228.177ZM272.409 230.028C272.436 230.047 272.463 230.065 272.49 230.083C274.543 231.464 276.632 232.9 278.669 234.401C278.633 235.894 278.567 237.394 278.498 238.891L278.478 239.31C278.377 241.496 278.276 243.687 278.276 245.743C278.276 262.609 275.543 281.55 270.188 298.772L271.918 289.955C276.457 271.789 280.969 249.048 272.564 230.37C272.513 230.256 272.461 230.142 272.409 230.028ZM253.213 217.72C255.37 218.763 257.643 220.053 260.048 221.617C263.327 224.352 266.054 228.086 268.005 232.422C275.616 249.335 271.64 270.453 267.052 288.805C263.188 304.259 254.979 318.187 243.452 327.356C231.428 331.332 219.545 330.796 210.072 326.634C201.435 322.84 194.725 316.024 191.526 306.708C190.982 305.124 190.537 303.46 190.202 301.719C190.651 295.904 191.462 290.252 192.15 285.452C192.274 284.587 192.394 283.75 192.507 282.944C193.304 277.28 194.591 271.622 196.358 266.093C200.303 257.3 205.744 247.761 212.37 239.387C220.245 229.435 229.626 221.341 239.96 217.896C244.816 216.278 249.273 216.383 253.213 217.72ZM191.69 264.284C193.958 257.257 196.972 250.411 200.72 243.986C199.586 245.348 198.426 246.739 197.238 248.156C195.665 250.031 194.257 252.007 193.007 254.065C192.7 255.309 192.37 256.519 192.047 257.702L191.989 257.913C190.961 261.674 190.012 265.145 189.738 268.887C190.342 267.383 190.993 265.845 191.69 264.284ZM244.813 341.303C249.338 337.965 253.372 333.503 256.823 328.386C253.134 329.617 249.433 330.798 245.728 331.933C242.309 334.565 238.619 336.824 234.676 338.633C236.658 339.195 238.661 339.735 240.685 340.251C242.059 340.602 243.435 340.953 244.813 341.303ZM237.998 344.721C234.216 343.731 230.508 342.662 226.868 341.516C224.92 342.069 222.92 342.518 220.872 342.856C220.897 342.865 220.921 342.874 220.945 342.883C226.448 344.632 232.177 345.332 237.998 344.721ZM261.344 317.87L262.253 313.239C260.595 315.952 258.78 318.547 256.814 320.998C258.337 320.036 259.849 318.994 261.344 317.87ZM206.713 334.096C208.327 334.78 209.952 335.447 211.591 336.096C210.955 336.253 210.32 336.408 209.686 336.562C208.67 335.784 207.678 334.961 206.713 334.096ZM276.353 354.096C269.042 359.249 261.188 363.046 252.945 365.153C252.268 365.326 251.589 365.488 250.908 365.638C267.233 366.275 282.757 364.626 297.021 359.917C297.588 359.532 298.154 359.144 298.718 358.753C291.228 357.341 283.768 355.769 276.353 354.096ZM318.983 349.47C329.93 340.181 340.238 329.68 349.384 318.289C348.937 318.991 348.48 319.691 348.012 320.39C339.617 332.92 329.847 342.454 318.983 349.47ZM303.969 354.635C296.477 353.29 289 351.768 281.552 350.131C286.132 346.364 290.468 342.056 294.516 337.3C298.957 332.081 303.605 326.48 308.22 320.565C308.164 322.534 308.079 324.5 307.966 326.459C307.402 336.166 306.118 345.654 303.969 354.635ZM282.492 368.684C265.718 371.641 247.763 371.277 229.311 368.642C213.957 366.448 199.472 361.635 187.39 353.35C189.282 358.671 191.074 363.479 192.711 367.569C193.856 370.427 195 373.231 196.155 375.985C224.917 383.608 255.785 382.239 282.492 368.684ZM187.008 346.885C191.614 350.447 196.669 353.423 202.077 355.867C197.46 352.916 193.542 349.672 190.249 346.18C189.178 346.415 188.098 346.651 187.008 346.885ZM186.583 341.861C184.159 338.678 182.18 335.323 180.597 331.825C178.657 327.536 177.327 323.063 176.495 318.469C176.204 318.29 175.913 318.111 175.623 317.93C178.318 326.466 181.028 334.804 183.63 342.492C184.62 342.283 185.604 342.073 186.583 341.861ZM176.397 336.621C173.976 329.285 171.499 321.537 169.059 313.712C166.349 311.91 163.66 310.048 160.989 308.126C163.336 313.793 165.741 319.078 168.147 323.891C170.496 328.588 173.264 332.822 176.397 336.621ZM154.214 304.685C154.646 309.442 155.158 314.325 155.751 319.335C156.031 321.703 156.298 324.095 156.566 326.5C157.32 333.264 158.087 340.137 159.198 346.902C164.964 346.089 170.685 345.085 176.277 343.991C171.363 338.916 167.108 332.992 163.675 326.127C160.473 319.723 157.277 312.509 154.214 304.685ZM313.132 305.618C313.113 305.136 313.093 304.655 313.072 304.174C313.663 303.846 314.252 303.515 314.839 303.182C314.274 303.998 313.705 304.81 313.132 305.618ZM379.497 245.875C379.634 246.343 379.77 246.811 379.904 247.28C380.134 246.297 380.357 245.31 380.572 244.32C380.216 244.84 379.857 245.359 379.497 245.875ZM387.703 233.081C386.764 239.393 385.515 245.603 383.986 251.647C383.519 253.491 383.014 255.329 382.47 257.16C385.265 269.12 386.986 281.289 387.548 293.492C399.624 270.49 405.586 242.675 400.368 218.106C399.896 215.885 399.323 213.72 398.654 211.608C395.419 219.007 391.755 226.19 387.703 233.081ZM396.099 204.806C394.004 209.96 391.697 215.019 389.189 219.957C389.897 210.868 389.945 201.664 389.253 192.53C391.903 196.386 394.208 200.473 396.099 204.806ZM401.504 204.754C403.078 208.663 404.345 212.764 405.259 217.068C411.351 245.749 403.026 278.183 387.749 303.281C387.651 322.423 384.651 341.535 378.426 359.937C389.003 359.154 400.249 357.486 410.736 354.401C421.916 351.111 432.023 346.276 439.581 339.348C441.943 328.327 443.753 317.254 445.076 306.327C448.242 280.182 445.618 257.88 438.157 239.095C435.178 234.089 431.895 229.158 428.367 224.318C421.23 214.528 413.128 205.165 404.597 196.382C403.627 199.196 402.595 201.988 401.504 204.754ZM400.665 192.404C400.003 194.406 399.308 196.399 398.582 198.379C396.053 193.471 393.026 188.892 389.606 184.62C392.697 186.427 395.675 188.323 398.539 190.308C399.25 191.003 399.959 191.701 400.665 192.404ZM376.357 177.72C363.667 171.847 349.489 167.203 334.028 163.739C353.629 185.859 368.527 211.987 377.606 239.778C379.437 237.036 381.202 234.236 382.898 231.385C385.082 216.165 385.403 200.417 383.482 185.086C381.255 182.517 378.871 180.064 376.357 177.72ZM449.798 263.422C451.812 276.673 451.949 291.163 450.04 306.928C449.046 315.131 447.781 323.426 446.214 331.732C447.938 329.199 449.384 326.457 450.512 323.493C458.15 303.406 456.832 283.077 449.798 263.422ZM437.796 347.228C430.329 352.61 421.432 356.465 412.147 359.197C400.523 362.618 388.078 364.346 376.598 365.075C373.479 373.414 369.682 381.593 365.176 389.547C350.529 415.401 332.098 444.911 305.189 460.941C297.826 465.328 289.958 468.446 281.751 470.464C297.756 477.481 313.771 480.321 329.187 478.88C359.1 476.084 387.387 457.11 409.45 419.859C422.504 397.82 431.682 372.788 437.796 347.228ZM373.019 360.266C378.62 344.338 381.718 327.824 382.528 311.195C381.745 312.29 380.949 313.367 380.14 314.424C367.562 330.854 352.554 346.049 335.815 359.124C342.782 359.802 349.748 360.256 356.701 360.439C361.676 360.571 367.202 360.545 373.019 360.266ZM155.01 104.013C154.424 104.485 153.852 104.971 153.294 105.472C150.841 107.67 148.634 110.157 146.7 112.925C150.67 112.507 154.633 112.32 158.603 112.402C159.971 110.959 161.4 109.564 162.892 108.219C164.992 106.325 167.149 104.504 169.357 102.767C164.568 103.086 159.785 103.502 155.01 104.013ZM169.294 109.267C168.265 110.135 167.247 111.024 166.24 111.932C165.922 112.219 165.607 112.508 165.295 112.8C165.734 112.843 166.173 112.89 166.612 112.941C167.49 111.701 168.383 110.476 169.294 109.267ZM163.406 117.65C162.514 117.577 161.622 117.52 160.73 117.477C155.788 123.021 151.72 129.292 148.434 136.135C150.297 135.279 152.178 134.469 154.077 133.705C156.917 128.182 160.026 122.805 163.406 117.65ZM161.129 131.109C163.567 126.706 166.184 122.424 168.979 118.304C175.062 119.243 181.169 120.929 187.369 123.503C188.548 123.992 189.721 124.49 190.886 124.997C180.368 125.917 170.509 127.972 161.129 131.109ZM141.43 139.606C144.706 131.536 148.926 124.068 154.235 117.421C150.651 117.526 147.056 117.851 143.436 118.367C140.066 124.967 138.001 132.802 137.5 141.781C138.803 141.032 140.113 140.307 141.43 139.606ZM132.391 144.857C132.531 135.329 134.274 126.782 137.44 119.386C126.763 121.482 115.802 125.075 104.201 129.451C68.992 142.734 60.5407 177.955 60.5407 210.503C60.5407 213.689 60.5111 217.108 60.48 220.712C60.3086 240.524 60.0889 265.928 64.4673 288.938C69.6554 316.203 81.0814 339 105.591 345.641C113.098 347.675 121.047 348.654 129.196 348.877C128.882 347.638 128.59 346.391 128.318 345.137C89.7784 311.943 72.0235 266.244 76.8312 225.59C79.5533 202.573 89.5181 181.209 107 164.784C109.674 162.077 112.641 159.393 115.915 156.734C121.317 152.348 126.792 148.384 132.391 144.857ZM87.4258 202.897C84.6189 210.335 82.7467 218.144 81.7966 226.178C77.4039 263.321 92.7551 305.351 126.863 337.128C124.566 321.775 124.727 305.496 124.874 290.71C124.909 287.193 124.944 283.76 124.944 280.444C124.944 279.549 124.946 278.654 124.951 277.761C109.287 262.294 96.0691 245.107 90.2876 227.202C87.7127 219.228 86.6053 211.087 87.4258 202.897ZM125.036 270.746C125.489 247.181 127.642 224.356 132.062 201.544C131.742 190.724 132.195 180.034 133.622 169.78C133.028 164.115 132.625 158.461 132.46 152.841C127.448 155.476 122.816 158.408 118.56 161.598C115.702 163.741 113.009 166.003 110.482 168.374C102.337 176.64 97.2477 184.957 94.5588 193.192C91.0323 203.993 91.5611 214.874 95.0457 225.666C100.078 241.252 111.242 256.541 125.036 270.746ZM137.404 150.398C137.409 150.719 137.416 151.04 137.423 151.361C137.529 150.987 137.636 150.613 137.745 150.24C137.631 150.293 137.517 150.345 137.404 150.398ZM143.789 147.663C141.453 154.669 139.768 162.113 138.657 169.865C138.751 170.734 138.848 171.603 138.95 172.472C141.444 163.602 144.557 154.687 148.295 145.988C146.766 146.523 145.264 147.081 143.789 147.663ZM157.522 137.969C157.573 137.866 157.624 137.764 157.675 137.662C169.782 133.005 182.665 130.286 196.787 129.609C198.024 129.55 199.264 129.496 200.507 129.447C202.706 130.527 204.879 131.641 207.024 132.786C188.558 132.335 172.062 134.196 157.522 137.969ZM201.571 124.402C197.557 122.457 193.461 120.618 189.287 118.885C183.513 116.488 177.821 114.821 172.173 113.775C175.157 109.706 178.325 105.821 181.678 102.164C188.854 101.94 196.037 101.94 203.222 102.172C219.001 102.684 234.183 104.238 248.874 106.959C263.839 113.42 278.045 121.849 291.306 131.642C261.874 125.077 230.855 123.328 201.571 124.402ZM285.404 121.366C280.29 117.93 275.046 114.694 269.681 111.692C272.118 112.353 274.543 113.051 276.956 113.785C279.837 116.206 282.657 118.737 285.404 121.366ZM279.386 109.301C304.692 117.115 328.702 128.895 351.979 145.335C360.685 151.483 370.286 158.747 380.071 166.927C376.914 154.524 372.087 142.677 365.365 131.935C340.931 92.8863 304.52 73.7192 259.05 69.9746C235.98 68.0747 216.193 74.5303 199.633 86.2247C216.29 80.9375 234.259 81.3934 252.18 90.9206C261.605 95.9316 270.761 102.141 279.386 109.301ZM206.172 89.5955C220.293 86.2557 235.125 87.5163 249.832 95.3354C255.513 98.3554 261.096 101.828 266.52 105.695C261.189 104.35 255.798 103.169 250.343 102.147C236.257 96.1124 221.484 91.7641 206.172 89.5955ZM187.022 97.0383C189.51 95.691 192.036 94.4732 194.595 93.3977C204.936 94.117 215.064 95.887 224.931 98.5581C217.864 97.8686 210.685 97.4116 203.384 97.1751C197.927 96.9983 192.472 96.9541 187.022 97.0383ZM183.14 93.4844C181.009 94.6876 178.911 95.9768 176.849 97.3436C172.775 97.5249 168.706 97.7766 164.641 98.0969C170.127 95.5969 176.344 94.011 183.188 93.4385C183.172 93.4538 183.156 93.4691 183.14 93.4844ZM227.486 139.228C228.632 139.997 229.769 140.776 230.897 141.566C232.24 141.087 233.586 140.643 234.935 140.235C232.47 139.856 229.986 139.521 227.486 139.228Z" fill="#72451B"/>
<path fill-rule="evenodd" clip-rule="evenodd" d="M280.462 320.603C300.468 314.786 316.904 303.084 322.057 283.851C324.631 274.248 323.728 262.275 320.113 249.294C316.513 236.37 310.318 222.784 302.714 210.15C295.11 197.517 286.17 185.957 277.166 177.055C268.076 168.067 259.268 162.134 251.978 160.181C237.121 156.2 216.527 162.672 197.766 176.068C179.14 189.366 163.451 208.714 158.098 228.692C152.889 248.132 160.508 269.13 174.049 286.73C187.588 304.326 206.386 317.63 221.906 321.788C237.774 326.04 260.462 326.418 280.462 320.603ZM220.871 325.652C254.012 334.532 314.6 327.139 325.921 284.886C337.243 242.634 286.154 165.197 253.013 156.317C219.872 147.437 165.556 185.405 154.234 227.657C142.913 269.91 187.729 316.772 220.871 325.652Z" fill="#72451B"/>
<path fill-rule="evenodd" clip-rule="evenodd" d="M253.839 327.956C266.89 320.346 277.657 308.52 281.39 294.588C285.249 280.185 284.081 258.308 278.802 239.073C276.179 229.515 272.621 220.917 268.405 214.424C264.127 207.836 259.58 204.028 255.206 202.856C250.621 201.627 244.529 202.421 237.372 205.422C230.301 208.386 222.718 213.29 215.485 219.443C200.899 231.854 188.665 248.534 184.857 262.745C181.049 276.957 183.307 293.901 189.558 308.153C195.882 322.572 205.678 332.932 215.752 335.632C226.237 338.441 240.705 335.613 253.839 327.956ZM214.458 340.461C238.834 346.993 277.892 326.96 286.219 295.882C294.547 264.805 280.876 204.558 256.5 198.026C232.124 191.494 188.354 230.374 180.027 261.451C171.7 292.529 190.082 333.93 214.458 340.461Z" fill="#64401E"/>
<path fill-rule="evenodd" clip-rule="evenodd" d="M257.782 325.389C274.011 318.391 287.077 307.325 290.655 293.972C294.401 279.993 290.854 259.089 282.952 240.454C279.048 231.248 274.209 222.914 268.998 216.568C263.706 210.123 258.438 206.219 253.803 204.977C248.789 203.633 242.085 203.818 234.437 205.608C226.855 207.382 218.698 210.653 210.964 215.08C195.286 224.055 182.398 237.142 178.728 250.836C174.964 264.884 178.007 283.768 185.261 300.2C188.854 308.339 193.374 315.625 198.329 321.193C203.329 326.811 208.487 330.369 213.297 331.658C224.011 334.529 241.593 332.37 257.782 325.389ZM212.003 336.488C236.379 343.019 287.158 326.344 295.485 295.266C303.812 264.189 279.473 206.679 255.097 200.147C230.721 193.616 182.226 218.464 173.899 249.541C165.572 280.619 187.627 329.956 212.003 336.488Z" fill="#64401E"/>
<path fill-rule="evenodd" clip-rule="evenodd" d="M260.464 331.108C277.729 326.974 290.971 318.704 294.387 305.953C298.489 290.645 302.852 267.172 297.982 245.064C293.213 223.419 279.557 202.751 246.617 192.259C242.367 191.166 236.01 192.414 227.968 196.547C220.067 200.607 211.405 207.009 203.094 214.689C186.301 230.208 172.058 249.888 168.255 264.079C164.646 277.549 169.792 292.766 179.472 305.87C189.153 318.976 202.507 328.767 213.297 331.658C224.589 334.684 243.46 335.18 260.464 331.108ZM248.011 187.455C223.635 180.924 171.753 231.708 163.426 262.785C155.099 293.863 187.627 329.956 212.003 336.487C236.379 343.019 290.89 338.325 299.217 307.247C307.544 276.17 317.685 209.566 248.011 187.455Z" fill="#64401E"/>
<path fill-rule="evenodd" clip-rule="evenodd" d="M218.911 329.478C239.593 335.02 264.079 318.138 272.002 288.569C275.94 273.871 275.856 256.932 271.945 243.037C268.042 229.174 260.775 219.637 251.317 216.868C227.232 215.4 215.389 221.029 208.314 229.405C204.596 233.807 201.9 239.301 199.604 245.817C197.701 251.218 196.157 257.053 194.489 263.358C194.129 264.718 193.764 266.1 193.387 267.505C185.464 297.073 198.229 323.936 218.911 329.478ZM252.157 211.911C203.75 208.78 197.381 232.865 189.637 262.148C189.281 263.492 188.923 264.847 188.558 266.21C180.23 297.288 193.241 327.776 217.617 334.308C241.993 340.839 268.504 320.941 276.831 289.863C285.158 258.786 276.533 218.442 252.157 211.911Z" fill="#64401E"/>
<path fill-rule="evenodd" clip-rule="evenodd" d="M218.275 329.308L218.911 329.478C239.593 335.02 264.079 318.138 272.002 288.569C272.864 285.35 273.761 282.234 274.644 279.165C275.992 274.479 277.308 269.902 278.426 265.231C280.239 257.651 281.284 250.706 280.767 244.507C280.262 238.443 278.273 233.157 273.964 228.636C269.573 224.029 262.405 219.833 250.863 216.74C241.063 214.115 228.952 218.65 217.662 228.693C206.529 238.595 197.281 252.973 193.387 267.504C189.233 283.009 186.607 298.937 189.469 310.734C190.857 316.457 193.471 320.929 197.624 324.033C201.813 327.163 208.113 329.308 217.617 329.308L218.275 329.308ZM217.617 334.308C176.67 334.308 180.23 297.288 188.558 266.21C196.885 235.133 227.781 205.379 252.157 211.911C295.812 223.608 287.541 252.391 279.393 280.743C278.516 283.796 277.641 286.843 276.831 289.863C268.504 320.941 241.993 340.839 217.617 334.308Z" fill="#64401E"/>
<path fill-rule="evenodd" clip-rule="evenodd" d="M218.911 329.478C239.593 335.02 264.079 318.138 272.002 288.569C275.94 273.871 275.856 256.932 271.945 243.037C267.98 228.953 260.542 219.334 250.863 216.74C241.063 214.115 228.952 218.65 217.662 228.693C206.529 238.595 197.281 252.973 193.387 267.504C185.464 297.073 198.229 323.936 218.911 329.478ZM217.617 334.308C241.993 340.839 268.504 320.941 276.831 289.863C285.158 258.786 276.533 218.442 252.157 211.911C227.781 205.379 196.885 235.133 188.558 266.21C180.23 297.288 193.241 327.776 217.617 334.308Z" fill="#64401E"/>
<path fill-rule="evenodd" clip-rule="evenodd" d="M210.308 361.584C243.733 370.54 282.077 343.256 294.353 297.441C300.468 274.621 300.345 248.347 294.258 226.722C288.118 204.908 276.367 189.163 260.316 184.862C244.145 180.529 224.811 188.1 207.346 203.635C190.038 219.03 175.664 241.357 169.594 264.012C157.318 309.827 176.883 352.628 210.308 361.584ZM209.014 366.413C246.133 376.359 286.503 346.059 299.183 298.735C311.863 251.412 298.729 189.979 261.61 180.033C224.491 170.087 177.444 215.394 164.764 262.718C152.084 310.041 171.895 356.468 209.014 366.413Z" fill="#64401E"/>
</svg>
