<svg xmlns="http://www.w3.org/2000/svg" version="1.1" xmlns:xlink="http://www.w3.org/1999/xlink" width="1000" height="1000"><g clip-path="url(#SvgjsClipPath1061)"><rect width="1000" height="1000" fill="#ffffff"></rect><g transform="matrix(1.9230769230769231,0,0,1.9230769230769231,94.23076923076923,50)"><svg xmlns="http://www.w3.org/2000/svg" version="1.1" xmlns:xlink="http://www.w3.org/1999/xlink" width="422" height="468"><svg width="422" height="468" viewBox="0 0 422 468" fill="none" xmlns="http://www.w3.org/2000/svg">
<path fill-rule="evenodd" clip-rule="evenodd" d="M331.195 0.504219C332.162 -0.0293733 333.378 0.322083 333.912 1.28922C336.388 5.7765 338.943 10.2651 341.512 14.7761C352.631 34.3053 363.988 54.2531 370.134 76.3225C378.937 107.931 376.981 142.331 367.084 174.236C373.893 179.444 380.022 185.211 385.405 191.558C392.841 200.326 398.827 210.168 403.215 221.119C419.483 248.601 427.187 278.932 415.718 309.092C413.245 315.595 409.432 321.069 404.683 325.67C398.529 353.846 388.776 381.748 374.322 406.152C351.736 444.285 322.323 464.396 290.606 467.36C272.239 469.077 253.27 465.027 234.598 455.591C211.089 459.292 185.294 454.798 160.805 445.814C124.728 432.578 91.0018 409.433 70.6545 387.39C46.5802 361.31 20.9326 308.177 8.48975 254.035C2.26093 226.933 -0.689667 199.452 1.56782 174.863C3.82427 150.285 11.3032 128.421 26.1068 112.786C34.6552 103.757 46.0079 98.1409 57.9131 94.3139C69.7095 90.5219 82.2137 88.4381 93.2918 86.5919L93.5846 86.5431C100.448 85.3992 107.337 84.4412 114.247 83.6779C123.714 76.4738 135.992 72.6854 150.135 72.6986C168.897 56.6929 192.336 47.177 220.42 49.4898C267.098 53.3339 304.889 73.1295 330.18 113.548C338.402 126.687 343.873 141.36 346.997 156.639C352.161 161.136 357.334 165.874 362.412 170.824C362.835 171.119 363.255 171.416 363.673 171.715C373.005 140.854 374.733 107.747 366.281 77.3956C360.281 55.8497 349.23 36.433 338.132 16.9303C335.539 12.3748 332.944 7.81461 330.41 3.22153C329.876 2.25439 330.228 1.03781 331.195 0.504219ZM348.746 166.976C352.619 169.156 356.326 171.47 359.858 173.921C360.654 174.698 361.447 175.48 362.236 176.267C361.424 178.738 360.562 181.192 359.653 183.628C356.7 177.679 353.012 172.209 348.773 167.175C348.764 167.109 348.755 167.042 348.746 166.976ZM343.341 158.763C343.401 159.07 343.46 159.378 343.518 159.685C342.324 159.092 341.118 158.51 339.898 157.94C326.415 145.537 309.626 136.272 293.41 129.272C284.403 125.384 275.041 122.135 265.447 119.452C259.987 112.692 254.057 106.329 247.775 100.471C269.469 108.067 290.204 118.758 310.383 133.011C320.552 140.192 331.918 148.886 343.341 158.763ZM341.927 152.298C338.772 139.307 333.81 126.891 326.789 115.67C302.26 76.4689 265.696 57.2319 220.091 53.4763C195.643 51.4629 174.864 58.7843 157.695 71.7521C175.106 65.4257 194.059 65.3216 212.945 75.3621C222.368 80.3718 231.522 86.5842 240.143 93.7492C265.437 101.549 289.43 113.315 312.691 129.743C321.737 136.133 331.75 143.726 341.927 152.298ZM229.945 90.837C223.838 86.3316 217.515 82.3221 211.067 78.894C195.357 70.5417 179.517 69.6185 164.554 73.7507C180.747 75.7785 196.352 80.264 211.196 86.6282C217.531 87.8137 223.778 89.2134 229.945 90.837ZM191.553 83.6619C179.898 80.0816 167.858 77.74 155.513 76.8909C152.591 78.1141 149.712 79.5213 146.885 81.0934C146.725 81.2508 146.564 81.4087 146.405 81.5671C152.387 81.4467 158.377 81.4808 164.367 81.6748C173.62 81.9746 182.675 82.6288 191.553 83.6619ZM142.452 85.6711C149.708 85.4402 156.972 85.4374 164.238 85.6727C180.062 86.1854 195.287 87.7458 210.021 90.478C225.76 97.2678 240.658 106.227 254.498 116.654C224.4 109.661 192.524 107.795 162.465 108.907C158.424 106.946 154.299 105.093 150.095 103.347C144.09 100.853 138.172 99.1537 132.299 98.1255C135.472 93.7492 138.856 89.58 142.452 85.6711ZM138.008 81.8371C140.117 80.4349 142.264 79.1145 144.446 77.8851C144.807 77.5338 145.17 77.1849 145.536 76.8385C137.067 77.3726 129.505 79.4206 123.042 82.813C128.023 82.3839 133.013 82.0575 138.008 81.8371ZM108.988 88.3283C104.061 88.9502 99.1453 89.6714 94.2422 90.4886L94.0724 90.5169C82.9167 92.3762 70.6539 94.4199 59.1373 98.122C47.567 101.841 36.9183 107.185 29.0115 115.536C15.0383 130.294 7.75937 151.176 5.55106 175.229C3.34379 199.271 6.22152 226.307 12.3881 253.139C24.7361 306.868 50.1478 359.278 73.5937 384.677C93.4878 406.229 126.669 429.03 162.182 442.058C184.44 450.224 207.423 454.487 228.548 452.338C217.091 445.808 205.785 437.25 194.84 426.752C185.173 417.479 177.521 407.79 171.029 397.484C161.35 394.258 152.437 390.011 145.473 385.568C145.23 385.413 144.989 385.257 144.75 385.099C135.639 382.767 126.868 379.192 118.763 374.098C104.523 365.147 96.4924 352.084 91.9833 337.41C82.8493 337.286 73.8814 336.278 65.414 333.984C38.2756 326.631 26.313 301.456 21.0466 273.779C16.5765 250.287 16.8051 224.355 16.9795 204.567C17.011 200.996 17.0407 197.624 17.0407 194.503C17.0407 161.597 25.5681 123.593 63.6124 109.241C76.6829 104.31 89.1868 100.266 101.54 98.2567C103.629 94.5853 106.122 91.2671 108.988 88.3283ZM106.675 97.5407C108.773 94.3801 111.213 91.5616 113.96 89.0995C114.561 88.5604 115.178 88.0375 115.811 87.5312C121.181 86.9548 126.562 86.4976 131.95 86.1639C129.302 88.1885 126.725 90.3372 124.227 92.5899C122.69 93.9759 121.219 95.4158 119.814 96.9066C115.434 96.8056 111.06 97.0342 106.675 97.5407ZM99.2801 102.715C88.2638 104.79 76.9715 108.476 65.0243 112.983C29.5004 126.385 21.0407 161.915 21.0407 194.503C21.0407 197.682 21.0111 201.095 20.9799 204.696C20.8082 224.505 20.5875 249.968 24.9761 273.032C30.1729 300.343 41.6585 323.404 66.46 330.123C74.2117 332.224 82.4287 333.204 90.8447 333.393C90.4551 331.897 90.0983 330.388 89.7716 328.868C51.2572 295.764 33.5365 250.163 38.3278 209.649C41.0372 186.739 50.9532 165.484 68.3479 149.143C71.0098 146.447 73.9656 143.773 77.2299 141.123C82.6914 136.688 88.2262 132.688 93.8869 129.136C94.002 119.18 95.871 110.311 99.2801 102.715ZM97.9555 126.674C98.3708 117.142 100.519 108.849 104.109 101.909C108.198 101.316 112.256 100.965 116.304 100.896C110.671 107.755 106.233 115.527 102.826 123.962C101.191 124.83 99.5676 125.734 97.9555 126.674ZM93.938 136.029C88.6297 138.77 83.7388 141.841 79.2604 145.198C76.3845 147.354 73.6758 149.63 71.1333 152.015C62.9393 160.329 57.8014 168.713 55.0835 177.037C51.519 187.954 52.0585 198.945 55.5699 209.819C60.7358 225.818 72.305 241.474 86.5142 255.952C86.9169 231.969 89.0676 208.77 93.5629 185.585C93.2397 174.744 93.6944 164.043 95.1254 153.788C94.501 147.846 94.0876 141.918 93.938 136.029ZM99.7596 159.031C99.5406 157.305 99.3382 155.58 99.1537 153.857C100.28 145.974 101.997 138.404 104.389 131.283C106.283 130.532 108.222 129.819 110.205 129.145C106.268 138.167 103.007 147.437 100.417 156.661C100.195 157.451 99.9757 158.241 99.7596 159.031ZM97.5743 185.912C98.0073 183.693 98.4619 181.475 98.9387 179.257C102.042 195.688 106.185 211.921 110.236 227.381C109.329 236.231 108.923 245.737 109.002 255.911C103.913 237.801 100.005 218.21 98.3406 198.817C97.9695 194.492 97.7105 190.185 97.5743 185.912ZM94.6925 202.792C91.9425 221.535 90.6382 240.424 90.4639 259.882C94.5017 263.809 98.7138 267.64 103.021 271.359C105.276 273.305 107.533 275.206 109.794 277.059C109.666 275.066 109.552 273.094 109.454 271.144C102.589 250.189 97.0502 226.431 94.6925 202.792ZM110.181 282.52C106.911 279.903 103.656 277.192 100.408 274.387C97.0292 271.47 93.6939 268.473 90.4428 265.402C90.4372 268.51 90.4062 271.687 90.3746 274.915C90.2204 290.709 90.0543 307.704 92.8081 323.521C92.9948 324.593 93.1947 325.658 93.4087 326.716C96.0499 328.949 98.7903 331.122 101.629 333.23C106.347 332.996 111.092 332.562 115.817 331.984C114.64 324.906 113.846 317.768 113.08 310.892C112.815 308.514 112.554 306.167 112.282 303.864C111.41 296.496 110.709 289.383 110.181 282.52ZM119.784 331.465C118.626 324.523 117.839 317.467 117.067 310.544C116.8 308.141 116.533 305.755 116.254 303.394C115.542 297.378 114.946 291.545 114.467 285.891C114.563 285.965 114.659 286.04 114.756 286.114C118.092 294.847 121.604 302.866 125.122 309.904C128.68 317.018 133.129 323.117 138.285 328.303C132.243 329.498 126.041 330.595 119.784 331.465ZM116.517 335.929C113.283 336.327 110.033 336.66 106.781 336.91C110.475 339.445 114.322 341.875 118.322 344.186C117.636 341.465 117.042 338.707 116.517 335.929ZM123.201 346.905C122.113 343.153 121.23 339.306 120.487 335.408C127.711 334.4 134.822 333.1 141.654 331.708C144.487 339.955 147.168 347.333 149.534 353.241C150.311 355.182 151.089 357.101 151.871 358.999C145.132 356.944 138.532 354.398 132.155 351.405C129.094 349.968 126.11 348.467 123.201 346.905ZM119.842 349.631C112.938 345.842 106.455 341.71 100.398 337.288C98.9886 337.346 97.5802 337.386 96.1745 337.407C100.541 350.934 108.055 362.642 120.892 370.711C125.785 373.787 130.947 376.288 136.299 378.277C128.128 370.235 123.12 360.279 119.842 349.631ZM146.395 381.388C135.57 374.059 129.091 363.883 124.954 352.335C126.761 353.255 128.594 354.152 130.455 355.026C137.983 358.56 145.828 361.49 153.859 363.747C156.877 370.843 160 377.64 163.416 384.183C157.652 383.681 151.952 382.771 146.395 381.388ZM157.155 387.509C160.478 389.138 164.041 390.681 167.762 392.081C167.048 390.852 166.347 389.614 165.66 388.367C162.813 388.177 159.975 387.894 157.155 387.509ZM170.372 388.595C171.434 390.463 172.526 392.309 173.654 394.133C178.281 395.617 183.075 396.854 187.898 397.749C203.084 400.565 218.19 399.919 229.271 393.285C239.168 387.359 246.937 379.312 252.909 369.791C238.818 376.481 224.094 381.62 209.018 384.851C196.639 387.504 183.467 388.997 170.372 388.595ZM259.391 366.581C252.82 378.877 243.677 389.321 231.326 396.717C219.029 404.079 202.763 404.574 187.169 401.681C183.745 401.046 180.336 400.245 176.987 399.309C182.76 407.908 189.452 416.041 197.609 423.865C209.876 435.631 222.522 444.839 235.243 451.428C245.407 449.687 255.057 446.335 263.886 441.075C289.648 425.728 307.576 397.249 322.261 371.329C326.408 364.009 329.939 356.489 332.878 348.822C327.423 349.049 322.254 349.061 317.582 348.938C308.677 348.703 299.758 348.031 290.849 347.019C280.878 354.353 270.346 360.933 259.391 366.581ZM285.002 346.307C277.73 351.458 270.174 356.197 262.388 360.459C264.6 355.514 266.447 350.325 267.966 344.959C268.638 344.67 269.306 344.373 269.972 344.07C274.974 344.905 279.985 345.656 285.002 346.307ZM295.519 343.498C302.913 344.245 310.307 344.745 317.687 344.939C322.768 345.073 328.423 345.044 334.379 344.749C340.261 328.13 343.421 310.872 344.104 293.509C343.011 295.084 341.89 296.622 340.743 298.12C327.942 314.841 312.62 330.279 295.519 343.498ZM344.245 286.016C342.145 289.39 339.912 292.624 337.567 295.688C324.133 313.237 307.891 329.33 289.739 342.865C285.195 342.328 280.653 341.704 276.114 341.005C289.969 333.476 302.367 322.393 312.751 306.894C318.772 297.906 323.127 288.591 325.955 279.135C331.824 269.352 336.757 259.144 340.492 248.669C342.946 261 344.227 273.515 344.245 286.016ZM348.249 287.141C348.164 306.526 345.095 325.878 338.709 344.49C349.532 343.729 361.101 342.051 371.877 338.88C383.15 335.563 393.388 330.666 401.037 323.609C403.418 312.519 405.241 301.379 406.572 290.387C409.749 264.153 407.113 241.753 399.608 222.875C396.614 217.841 393.315 212.885 389.771 208.023C382.461 197.996 374.142 188.417 365.388 179.45C364.322 182.582 363.181 185.686 361.965 188.757C363.564 192.696 364.848 196.83 365.77 201.172C371.84 229.749 363.519 262.114 348.249 287.141ZM359.72 194.2C360.572 196.722 361.288 199.322 361.857 202.003C367.228 227.288 360.823 255.955 348.124 279.348C347.655 266.518 345.9 253.715 342.954 241.145C343.509 239.278 344.025 237.404 344.501 235.524C346.035 229.465 347.285 223.239 348.222 216.912C352.505 209.638 356.353 202.037 359.72 194.2ZM357.642 188.798C355.475 183.793 352.761 179.116 349.606 174.742C350.521 185.286 350.437 195.942 349.479 206.424C352.475 200.705 355.203 194.817 357.642 188.798ZM344.379 215.555C346.588 200.216 346.912 184.334 344.96 168.873C342.674 166.229 340.225 163.707 337.64 161.3C324.479 155.202 309.73 150.427 293.623 146.917C313.923 169.49 329.268 196.338 338.448 224.91C340.508 221.861 342.486 218.74 344.379 215.555ZM335.561 229.062C326.155 198.208 309.416 169.247 286.861 145.492C285.393 145.191 283.936 144.898 282.488 144.614C285.7 150.372 288.559 156.288 291.014 162.311C291.822 164.295 292.587 166.291 293.306 168.299C295.735 170.82 298.107 173.445 300.42 176.173C315.895 194.429 326.018 215.678 329.049 237.614C329.687 236.829 330.319 236.036 330.944 235.236C332.521 233.218 334.061 231.159 335.561 229.062ZM329.661 243.135C331.172 241.36 332.651 239.548 334.095 237.699C335.07 236.453 336.03 235.191 336.975 233.915C337.631 236.272 338.244 238.64 338.814 241.016C336.289 249.274 332.978 257.396 329.009 265.302C330.077 257.915 330.273 250.498 329.661 243.135ZM325.522 241.813C323.333 219.904 313.718 198.494 298.406 179.998C303.589 190.695 306.856 202.119 307.348 213.607C308.21 233.709 301.067 253.563 290.819 271.817C290.603 272.203 290.385 272.588 290.165 272.972C303.176 264.069 315.12 253.787 325.522 241.813ZM285.413 280.877C300.296 271.489 314.014 260.466 325.917 247.388C326.338 257.451 325.171 267.576 322.251 277.532C308.833 299.754 290.446 319.782 270.255 335.6C271.937 327.529 272.967 319.166 273.458 310.72C273.708 306.41 273.819 302.069 273.804 297.725C277.823 292.318 281.747 286.687 285.413 280.877ZM282.51 277.98C284.181 275.307 285.793 272.598 287.331 269.859C297.395 251.933 304.169 232.84 303.352 213.778C303.075 207.305 301.861 200.829 299.879 194.488C303.763 221.774 298.257 249.58 278.936 273.763C277.082 276.083 275.145 278.434 273.132 280.796C273.197 281.677 273.258 282.559 273.315 283.442C276.426 281.686 279.492 279.866 282.51 277.98ZM273.559 287.888C274.877 287.157 276.187 286.415 277.491 285.661C276.241 287.497 274.971 289.312 273.684 291.107C273.65 290.033 273.608 288.96 273.559 287.888ZM269.436 285.588C269.427 285.417 269.417 285.246 269.407 285.075C269.105 285.415 268.802 285.755 268.497 286.094C268.811 285.926 269.124 285.757 269.436 285.588ZM260.404 294.714C263.516 293.203 266.598 291.637 269.644 290.015C269.724 292.145 269.775 294.277 269.795 296.408C263.924 304.239 257.853 311.61 252.089 318.383C247.21 324.116 241.941 329.12 236.366 333.257C230.07 331.82 223.798 330.311 217.558 328.767C217.698 328.702 217.838 328.635 217.978 328.569C222.898 326.222 227.439 322.965 231.618 319.142C241.88 312.18 251.606 303.66 260.404 294.714ZM258.033 291.419C261.879 287.486 265.551 283.465 269.015 279.451C268.544 273.638 267.875 267.886 267.043 262.261C264.579 268.818 261.828 274.959 258.972 280.434C256.605 284.97 253.927 289.848 250.927 294.732C253.313 293.657 255.682 292.553 258.033 291.419ZM247.004 300.825C247.815 300.478 248.623 300.128 249.431 299.774C247.956 301.132 246.461 302.469 244.949 303.78C245.648 302.803 246.333 301.817 247.004 300.825ZM244.345 297.609C248.579 291.245 252.263 284.644 255.425 278.583C259.19 271.368 262.754 262.988 265.699 254.046C263.062 239.355 259.378 225.821 255.32 214.738C246.697 191.185 233.919 170.855 217.772 153.756C203.018 154.582 191.561 161.853 182.387 172.414C170.424 186.184 162.418 205.492 156.424 223.297C155.957 224.685 155.482 226.088 155.003 227.503C154.998 228.032 154.981 228.554 154.953 229.07C156.163 227.626 157.35 226.2 158.518 224.797C162.94 219.487 167.083 214.51 171.115 210.197C176.263 204.689 181.366 200.109 186.859 197.174C191.008 194.957 195.367 193.686 200.098 193.631C205.631 191.589 212.269 190.128 218.662 190.029C227.911 189.887 237.368 192.628 241.609 201.534C243.678 205.879 244.171 210.961 244.196 215.838C244.196 215.951 244.197 216.065 244.197 216.178C244.779 216.626 245.356 217.081 245.926 217.543C252.295 222.7 258.147 228.974 259.61 236.536C261.716 247.414 259.197 258.314 254.59 268.257C249.982 278.203 243.223 287.324 236.635 294.736C233.939 297.768 231.128 300.496 228.234 302.927C228.034 303.351 227.833 303.772 227.629 304.191C233.261 302.13 238.841 299.942 244.345 297.609ZM224.917 309.42C229.996 307.623 235.043 305.725 240.04 303.715C239.696 304.174 239.349 304.63 238.998 305.083C235.93 309.052 232.641 312.758 229.127 315.998C223.809 319.59 218.359 322.739 212.838 325.282C217.575 320.826 221.619 315.331 224.917 309.42ZM232.165 293.699C232.662 293.17 233.156 292.629 233.645 292.078C240.077 284.842 246.571 276.048 250.961 266.575C255.352 257.1 257.577 247.078 255.683 237.296C254.547 231.426 249.992 226.101 244.077 221.199C244.05 221.839 244.022 222.473 243.993 223.099L243.975 223.484C243.872 225.702 243.776 227.795 243.776 229.743C243.776 250.158 239.878 273.601 232.165 293.699ZM240.125 213.183C239.939 209.5 239.356 206.107 237.997 203.254C234.768 196.473 227.389 193.895 218.723 194.029C215.696 194.076 212.599 194.457 209.613 195.07C211.654 195.69 213.756 196.514 215.93 197.552C217.313 198.04 218.645 198.652 219.922 199.375C221.257 200.133 222.525 201.009 223.722 201.989C224.85 202.727 225.997 203.516 227.164 204.359C228.967 205.659 231.029 207.032 233.258 208.516C234.148 209.109 235.064 209.719 236.002 210.349C237.352 211.258 238.737 212.202 240.125 213.183ZM232.142 212.579C232.681 212.939 233.225 213.302 233.769 213.668C235.894 215.097 238.062 216.589 240.175 218.153C240.14 219.739 240.07 221.331 239.997 222.914L239.978 223.329C239.877 225.519 239.776 227.699 239.776 229.743C239.776 249.033 236.211 271.037 229.238 290.112L232.43 273.846C236.974 255.661 241.435 233.079 233.108 214.575C232.804 213.899 232.482 213.233 232.142 212.579ZM214.403 201.256C216.598 202.316 218.907 203.627 221.346 205.214C224.702 208.007 227.48 211.814 229.461 216.217C237.152 233.309 233.121 254.592 228.537 272.926C224.647 288.487 216.357 302.551 204.695 311.802C192.536 315.845 180.494 315.32 170.871 311.092C162.115 307.245 155.3 300.327 152.053 290.871C151.494 289.243 151.039 287.535 150.698 285.748C151.148 279.887 151.964 274.198 152.654 269.386C152.779 268.519 152.899 267.681 153.012 266.875C153.814 261.175 155.11 255.479 156.891 249.912C160.852 241.08 166.317 231.495 172.978 223.077C180.883 213.087 190.338 204.91 200.802 201.422C205.776 199.764 210.354 199.876 214.403 201.256ZM153.157 248.465C156.207 239.008 160.612 229.883 166.343 221.677C164.815 223.487 163.251 225.365 161.639 227.301C160.408 228.78 159.148 230.293 157.855 231.835C156.248 233.75 154.812 235.768 153.54 237.87C153.229 239.133 152.895 240.363 152.565 241.57L152.5 241.806C151.32 246.122 150.226 250.123 150.162 254.609C150.156 255.019 150.15 255.43 150.144 255.842C150.46 254.971 150.794 254.094 151.148 253.21C151.767 251.661 152.438 250.075 153.157 248.465ZM146.055 261.184C145.994 264.973 145.942 268.884 145.959 272.833C145.657 268.935 145.682 265.03 146.055 261.184ZM151.121 226.495C151.113 226.515 151.106 226.536 151.1 226.557C145.561 242.902 139.269 261.491 137.418 279.382C136.577 276.772 135.907 274.17 135.422 271.605C130.895 247.647 132.207 218.079 135.173 193.668C136.824 180.084 141.3 169.714 148.172 161.013C152.452 155.595 157.69 150.787 163.826 146.243C174.285 141.703 186.482 138.887 200.522 137.727C205.289 141.618 209.845 145.728 214.177 150.058C199.81 151.797 188.439 159.347 179.367 169.79C166.859 184.19 158.653 204.139 152.633 222.021C152.141 223.484 151.638 224.969 151.128 226.472C151.126 226.48 151.123 226.487 151.121 226.495ZM223.208 153.742C238.516 170.633 250.709 190.508 259.077 213.363C262.506 222.729 265.67 233.798 268.179 245.829C271.798 232.646 273.892 218.69 273.233 205.724C272.605 193.361 269.484 182.039 262.944 173.132C256.435 164.266 246.414 157.616 231.624 154.772C228.712 154.212 225.909 153.874 223.208 153.742ZM269.812 254.333C274.853 238.726 278.038 221.467 277.228 205.521C276.574 192.649 273.31 180.492 266.169 170.765C258.998 160.997 248.046 153.856 232.38 150.844C227.824 149.968 223.509 149.602 219.42 149.689C215.257 145.368 210.882 141.254 206.307 137.348C218.281 136.759 231.487 137.29 245.966 138.888C260.318 145.796 273.617 154.854 285.608 166.282C287.715 169.243 289.68 172.304 291.477 175.443C301.535 207.91 298.926 242.333 275.811 271.266C274.781 272.555 273.727 273.852 272.649 275.153C271.964 268.06 270.998 261.08 269.812 254.333ZM269.337 147.868C266.6 145.359 263.769 143.009 260.876 140.842C259.687 140.663 258.505 140.491 257.332 140.325C261.429 142.65 265.433 145.162 269.337 147.868ZM247.083 134.988C249.162 135.222 251.266 135.477 253.395 135.754C243.279 129.599 232.902 126.308 222.469 125.56C230.949 128.089 239.168 131.22 247.083 134.988ZM208.594 122C225.408 119.804 242.399 123.485 258.67 134.378C259.941 135.229 261.205 136.116 262.458 137.036C266.406 137.639 270.434 138.31 274.543 139.048C271.376 134.003 267.935 129.105 264.26 124.392C263.585 123.83 262.908 123.271 262.227 122.716C232.499 114.696 200.497 112.077 169.914 112.695C172.996 114.336 176.024 116.043 178.996 117.816C189.111 118.542 198.996 119.921 208.594 122ZM186.484 122.5C190.441 122.925 194.358 123.455 198.229 124.095C196.087 124.68 193.95 125.357 191.822 126.124C190.066 124.89 188.286 123.682 186.484 122.5ZM170.114 117.347C167.327 115.823 164.493 114.355 161.614 112.942C160.327 112.993 159.043 113.049 157.763 113.11C143.513 113.792 130.521 116.547 118.315 121.265C118.07 121.753 117.827 122.242 117.585 122.732C132.878 118.64 150.38 116.682 170.114 117.347ZM115.309 127.527C132.032 122.596 151.704 120.333 174.419 121.538C175.536 121.597 176.651 121.665 177.763 121.74C181.023 123.705 184.214 125.751 187.33 127.878C182.85 129.765 178.41 132.043 174.03 134.686C169.683 137.308 165.602 139.973 161.813 142.757C154.351 146.041 147.689 150.195 141.818 155.262C125.839 169.056 115.971 189.393 111.614 216.77C107.642 201.281 103.835 185.275 101.241 169.252C102.18 165.421 103.188 161.586 104.268 157.742C107.125 147.566 110.807 137.36 115.309 127.527ZM113.351 239.093C112.849 248.765 112.875 259.194 113.423 270.409C114.923 274.963 116.486 279.382 118.092 283.632C121.566 286.287 125.061 288.835 128.588 291.276C122.709 272.18 117.189 253.164 113.351 239.093ZM133.878 294.841C126.408 270.81 119.326 246.236 115.306 230.938C114.968 229.653 114.629 228.363 114.29 227.069C117.653 195.352 127.588 172.831 144.432 158.29C145.253 157.582 146.091 156.891 146.946 156.219C146.291 156.978 145.653 157.749 145.033 158.534C137.675 167.85 132.935 178.922 131.202 193.186C128.219 217.744 126.852 247.79 131.492 272.348C132.533 277.858 134.371 283.506 136.88 289.035C136.869 291.718 136.983 294.379 137.242 297.008C136.117 296.296 134.995 295.574 133.878 294.841ZM130.483 297.393C127.247 295.245 124.042 293.011 120.859 290.69C123.421 296.987 126.06 302.834 128.7 308.115C131.474 313.662 134.827 318.565 138.67 322.875C135.98 314.787 133.209 306.136 130.483 297.393ZM144.299 327.073C141.521 318.878 138.617 309.933 135.739 300.789C136.473 301.25 137.209 301.708 137.947 302.16C138.77 306.796 140.101 311.303 142.053 315.619C143.723 319.31 145.84 322.843 148.463 326.182C147.087 326.481 145.698 326.779 144.299 327.073ZM146.861 330.62C153.544 335.956 161.199 340.027 169.52 343.004C167.975 342.204 166.428 341.336 164.881 340.4C159.53 337.163 155.079 333.551 151.419 329.631C149.918 329.961 148.398 330.292 146.861 330.62ZM156.014 328.609C159.082 331.605 162.703 334.407 166.952 336.978C182.795 346.564 198.406 348.481 212.83 344.794C219.438 343.104 225.832 340.229 231.91 336.335C224.966 334.72 218.065 333.028 211.218 331.31C207.41 332.581 203.682 333.366 200.054 333.708C192.227 336.9 183.315 337.258 173.603 333.373C169.472 331.721 165.859 329.605 162.737 327.075C160.487 327.597 158.246 328.108 156.014 328.609ZM169.676 327.021C171.358 328.007 173.161 328.888 175.088 329.659C177.473 330.613 179.793 331.281 182.047 331.692C181.494 331.508 180.945 331.314 180.4 331.11C177.174 330.07 174.035 328.707 171.008 327.074C170.566 327.061 170.122 327.043 169.676 327.021ZM179.978 326.629C180.055 326.662 180.133 326.695 180.211 326.728C180.727 326.947 181.249 327.156 181.775 327.353C187.879 329.297 194.266 329.966 200.754 329.003C200.906 328.928 201.056 328.851 201.206 328.774C200.995 328.72 200.783 328.666 200.572 328.612C196.244 327.507 192.014 326.3 187.872 324.993C185.326 325.723 182.693 326.274 179.978 326.629ZM194.212 322.733C196.63 323.435 199.079 324.102 201.561 324.736C203.012 325.106 204.464 325.476 205.919 325.846C210.934 322.191 215.345 317.185 219.038 311.451C214.87 312.857 210.685 314.198 206.493 315.482C202.723 318.392 198.621 320.844 194.212 322.733ZM222.798 302.153C220.411 303.959 217.98 305.556 215.526 306.952C218.854 303.15 221.792 298.941 224.311 294.445L222.798 302.153ZM182.074 318.212C181.055 318.089 180.046 317.935 179.049 317.749C179.715 317.995 180.383 318.237 181.053 318.477C181.393 318.389 181.733 318.301 182.074 318.212ZM174.237 320.205C171.219 319.034 168.246 317.804 165.312 316.515C166.98 318.176 168.736 319.712 170.572 321.105C171.793 320.808 173.014 320.508 174.237 320.205ZM159.123 309.241C160.056 309.696 160.993 310.145 161.934 310.587C160.345 309.445 158.846 308.186 157.451 306.814C157.992 307.639 158.55 308.449 159.123 309.241ZM146.363 293.424C144.164 287.329 142.7 280.894 142.084 274.398C141.535 278.042 141.152 281.663 140.981 285.237C140.933 286.222 140.902 287.201 140.888 288.176C142.488 291.602 144.359 294.979 146.467 298.237C146.384 296.648 146.353 295.039 146.363 293.424ZM143.312 300.722C142.623 299.668 141.958 298.601 141.318 297.524C141.4 298.254 141.494 298.979 141.6 299.7C142.17 300.044 142.74 300.384 143.312 300.722ZM142.617 304.952C143.369 308.055 144.384 311.067 145.697 313.97C147.482 317.914 149.828 321.682 152.842 325.219C153.051 325.173 153.258 325.127 153.466 325.08C155.096 324.717 156.73 324.349 158.369 323.975C156.118 322.654 154.232 320.944 152.676 318.916C150.27 315.78 148.717 311.97 147.753 307.857C146.03 306.911 144.318 305.943 142.617 304.952ZM237.246 337.559C229.927 342.747 222.066 346.561 213.821 348.669C211.768 349.194 209.695 349.612 207.603 349.919C225.57 351.042 242.653 349.528 258.244 344.37C259.159 343.749 260.072 343.119 260.982 342.481C253.033 341.001 245.115 339.337 237.246 337.559ZM246.675 351.569C229.039 355.176 210.004 354.95 190.382 352.147C174.537 349.883 159.651 344.825 147.397 336.043C149.484 341.959 151.458 347.285 153.247 351.755C154.424 354.693 155.6 357.575 156.789 360.405C186.784 368.409 219.106 366.677 246.675 351.569ZM158.768 365.036C190.803 372.867 225.326 369.922 254.227 351.771C256.169 350.551 258.104 349.291 260.029 347.991C261.104 347.63 262.172 347.252 263.233 346.857C261.403 352.738 259.154 358.349 256.438 363.599C241.037 371.429 224.815 377.375 208.18 380.94C195.244 383.712 181.561 385.163 168.111 384.502C164.772 378.285 161.715 371.813 158.768 365.036ZM274.576 337.279C287.779 330.023 299.551 319.41 309.427 304.668C311.369 301.77 313.13 298.836 314.717 295.873C303.146 311.396 289.354 325.451 274.576 337.279ZM265.344 339.211C267.569 330.056 268.89 320.379 269.465 310.488C269.608 308.02 269.705 305.542 269.757 303.058C264.844 309.408 259.873 315.408 255.135 320.976C250.868 325.989 246.284 330.498 241.433 334.396C249.374 336.153 257.35 337.782 265.344 339.211ZM177.096 137.515C183.003 135.989 189.3 134.87 195.989 134.142C194.425 132.943 192.839 131.766 191.232 130.611C186.482 132.454 181.763 134.766 177.096 137.515ZM195.795 128.989C199.991 127.634 204.206 126.649 208.427 126.057C217.297 128.012 225.906 130.579 234.209 133.795C222.607 132.963 211.852 132.887 201.925 133.606C201.883 133.609 201.841 133.612 201.798 133.615C199.831 132.037 197.83 130.495 195.795 128.989ZM112.435 124.217C112.534 124.005 112.634 123.793 112.734 123.582C111.446 124.154 110.167 124.749 108.895 125.366C110.06 124.969 111.241 124.586 112.435 124.217ZM99.5365 133.331C98.9949 135.123 98.4929 136.939 98.0293 138.776C97.967 137.208 97.9231 135.643 97.8986 134.081C98.4405 133.828 98.9865 133.578 99.5365 133.331ZM108.392 121.172C110.713 120.076 113.06 119.051 115.437 118.099C118.421 112.282 121.703 106.628 125.285 101.224C124.028 101.108 122.772 101.023 121.515 100.967C116.166 106.929 111.831 113.727 108.392 121.172ZM125.152 97.196C125.726 96.6421 126.311 96.097 126.905 95.5606C129.012 93.6613 131.168 91.8439 133.37 90.1196C131.462 92.503 129.621 94.9569 127.849 97.4721C126.949 97.365 126.05 97.2732 125.152 97.196ZM129.743 101.763C126.633 106.327 123.742 111.09 121.072 115.997C131.36 112.438 142.222 110.194 153.901 109.337C152.136 108.552 150.356 107.787 148.561 107.041C142.215 104.406 135.966 102.696 129.743 101.763ZM277.392 136.068C278.225 137.378 279.039 138.698 279.835 140.026C280.516 140.156 281.199 140.287 281.883 140.42C280.404 138.955 278.907 137.504 277.392 136.068ZM288.891 141.826C290.53 142.165 292.182 142.514 293.846 142.872C305.558 145.395 316.613 148.585 326.911 152.473C316.106 144.567 303.919 138.165 291.825 132.944C285.298 130.127 278.575 127.649 271.704 125.484C276.852 129.98 281.82 134.658 286.595 139.474C287.367 140.252 288.132 141.036 288.891 141.826ZM250.786 108.994C243.108 103.568 235.121 98.589 226.859 94.1699C230.67 95.1391 234.449 96.194 238.199 97.3369C242.547 100.985 246.755 104.882 250.786 108.994ZM277.316 143.622C274.461 143.089 271.646 142.588 268.871 142.12C274.806 147.181 280.4 152.983 285.39 159.321C283.008 153.978 280.304 148.732 277.316 143.622ZM340.942 233.263C340.622 232.101 340.291 230.942 339.95 229.785C340.842 228.51 341.721 227.222 342.585 225.921C342.085 228.39 341.537 230.839 340.942 233.263ZM409.437 242.461C412.242 257.003 412.693 273.12 410.543 290.868C409.463 299.791 408.059 308.824 406.297 317.858C408.636 314.796 410.557 311.41 411.979 307.671C420.294 285.804 418.058 263.673 409.437 242.461ZM399.597 330.015C391.978 335.775 382.723 339.858 373.006 342.718C361.315 346.158 348.783 347.881 337.242 348.596C334.112 357.017 330.288 365.274 325.741 373.301C311.09 399.162 292.715 428.557 265.934 444.512C258.189 449.126 249.879 452.329 241.197 454.319C257.718 461.805 274.286 464.868 290.234 463.378C320.347 460.563 348.759 441.463 370.88 404.114C384.19 381.642 393.476 356.075 399.597 330.015ZM94.9913 333.423C95.0946 333.422 95.1979 333.421 95.3012 333.42C95.1693 333.316 95.0376 333.212 94.9061 333.108C94.9343 333.213 94.9628 333.318 94.9913 333.423ZM88.5765 322.467C86.0567 306.749 86.2232 289.974 86.3745 274.733C86.4095 271.211 86.4436 267.77 86.4436 264.444C86.4436 263.479 86.4463 262.515 86.4517 261.553C70.7529 246.077 57.5295 228.906 51.7634 211.048C48.7854 201.826 47.7884 192.394 49.4834 182.929C45.8054 191.526 43.4176 200.669 42.3001 210.119C37.8415 247.82 53.6257 290.48 88.5765 322.467Z" fill="#72451B"></path>
</svg></svg></g></g><defs><clipPath id="SvgjsClipPath1061"><rect width="1000" height="1000" x="0" y="0" rx="350" ry="350"></rect></clipPath></defs></svg>